<svg width="32" height="33" viewBox="0 0 32 33" fill="none" xmlns="http://www.w3.org/2000/svg">
<path d="M24.1816 16.2241V24.3945C23.8607 24.7816 23.3651 25.2017 22.6948 25.6548C22.0246 26.0985 21.1608 26.4808 20.1035 26.8018C19.0462 27.1227 17.7671 27.2832 16.2661 27.2832C14.9351 27.2832 13.722 27.0661 12.627 26.6318C11.5319 26.1882 10.5879 25.5415 9.79492 24.6919C9.01139 23.8423 8.40723 22.8039 7.98242 21.5767C7.55762 20.34 7.34521 18.9287 7.34521 17.3428V16.0542C7.34521 14.4683 7.54818 13.057 7.9541 11.8203C8.36947 10.5837 8.95947 9.54053 9.72412 8.69092C10.4888 7.84131 11.3997 7.19466 12.457 6.75098C13.5143 6.30729 14.6896 6.08545 15.9829 6.08545C17.7765 6.08545 19.2492 6.37809 20.4009 6.96338C21.5526 7.53923 22.4305 8.34163 23.0347 9.37061C23.6483 10.3901 24.0259 11.5607 24.1675 12.8823H20.0469C19.943 12.1838 19.7448 11.5749 19.4521 11.0557C19.1595 10.5365 18.7394 10.1305 18.1919 9.83789C17.6538 9.54525 16.9552 9.39893 16.0962 9.39893C15.3882 9.39893 14.7557 9.54525 14.1987 9.83789C13.6512 10.1211 13.1886 10.5412 12.811 11.0981C12.4334 11.6551 12.1455 12.3442 11.9473 13.1655C11.749 13.9868 11.6499 14.9403 11.6499 16.0259V17.3428C11.6499 18.4189 11.7537 19.3724 11.9614 20.2031C12.1691 21.0244 12.4759 21.7183 12.8818 22.2847C13.2972 22.8416 13.807 23.2617 14.4111 23.5449C15.0153 23.8281 15.7186 23.9697 16.521 23.9697C17.1912 23.9697 17.7482 23.9131 18.1919 23.7998C18.645 23.6865 19.0085 23.5496 19.2822 23.3892C19.5654 23.2192 19.7826 23.0588 19.9336 22.9077V19.2544H16.0537V16.2241H24.1816Z" fill="url(#paint0_linear_269_684)"/>
<defs>
<linearGradient id="paint0_linear_269_684" x1="6" y1="5.19231" x2="23.1619" y2="24.8837" gradientUnits="userSpaceOnUse">
<stop offset="0.332307" stop-color="#005C97"/>
<stop offset="0.837934" stop-color="#363795"/>
</linearGradient>
</defs>
</svg>
