<svg width="500" height="500" viewBox="0 0 500 500" fill="none" xmlns="http://www.w3.org/2000/svg">
<path d="M500 382.4H0V382.65H500V382.4Z" fill="#EBEBEB"/>
<path d="M137.66 389.21H104.54V389.46H137.66V389.21Z" fill="#EBEBEB"/>
<path d="M211.89 398.37H171.14V398.62H211.89V398.37Z" fill="#EBEBEB"/>
<path d="M103.54 395.24H52.46V395.49H103.54V395.24Z" fill="#EBEBEB"/>
<path d="M449.9 390.89H356.76V391.14H449.9V390.89Z" fill="#EBEBEB"/>
<path d="M347.86 390.89H341.53V391.14H347.86V390.89Z" fill="#EBEBEB"/>
<path d="M319.44 395.11H277.21V395.36H319.44V395.11Z" fill="#EBEBEB"/>
<path d="M237 337.8H43.91C42.3973 337.797 40.9475 337.195 39.8788 336.124C38.8102 335.053 38.21 333.603 38.21 332.09V60.66C38.2231 59.156 38.8292 57.718 39.8964 56.6582C40.9637 55.5985 42.4059 55.0026 43.91 55H237C238.514 55 239.967 55.6016 241.038 56.6724C242.108 57.7433 242.71 59.1956 242.71 60.71V332.09C242.71 333.604 242.108 335.057 241.038 336.128C239.967 337.198 238.514 337.8 237 337.8ZM43.91 55.2C42.4636 55.2026 41.0774 55.7791 40.0556 56.8027C39.0338 57.8264 38.46 59.2136 38.46 60.66V332.09C38.46 333.536 39.0338 334.924 40.0556 335.947C41.0774 336.971 42.4636 337.547 43.91 337.55H237C238.447 337.547 239.834 336.971 240.858 335.948C241.881 334.924 242.457 333.537 242.46 332.09V60.66C242.457 59.2127 241.881 57.8255 240.858 56.8021C239.834 55.7787 238.447 55.2026 237 55.2H43.91Z" fill="#EBEBEB"/>
<path d="M453.31 337.8H260.21C258.696 337.797 257.246 337.195 256.175 336.125C255.105 335.054 254.503 333.604 254.5 332.09V60.66C254.516 59.1551 255.124 57.7171 256.193 56.6576C257.262 55.5981 258.705 55.0025 260.21 55H453.31C454.812 55.0052 456.252 55.6022 457.317 56.6617C458.382 57.7212 458.987 59.1578 459 60.66V332.09C459 333.601 458.401 335.05 457.335 336.121C456.268 337.191 454.821 337.795 453.31 337.8ZM260.21 55.2C258.763 55.2026 257.375 55.7787 256.352 56.8021C255.329 57.8255 254.753 59.2127 254.75 60.66V332.09C254.753 333.537 255.329 334.924 256.352 335.948C257.375 336.971 258.763 337.547 260.21 337.55H453.31C454.757 337.547 456.145 336.971 457.168 335.948C458.191 334.924 458.767 333.537 458.77 332.09V60.66C458.767 59.2127 458.191 57.8255 457.168 56.8021C456.145 55.7787 454.757 55.2026 453.31 55.2H260.21Z" fill="#EBEBEB"/>
<path d="M230.39 382.4V181.22H149.64V382.4H230.39Z" fill="#F0F0F0"/>
<path d="M225.95 245.49V186.27H154.07V245.49H225.95Z" fill="#E6E6E6"/>
<path d="M225.96 310.03V250.81H154.08V310.03H225.96Z" fill="#E6E6E6"/>
<path d="M225.96 374.56V315.34H154.08V374.56H225.96Z" fill="#E6E6E6"/>
<path d="M225.96 245.49V186.27H197.69V245.49H225.96Z" fill="#E0E0E0"/>
<path d="M225.95 310.02V250.8H197.68V310.02H225.95Z" fill="#E0E0E0"/>
<path d="M185.03 286.37H165.44V310.03H185.03V286.37Z" fill="#FAFAFA"/>
<path d="M157.17 310.02H165.44V286.36H157.17V310.02Z" fill="#F0F0F0"/>
<path d="M216.67 286.37H197.08V310.03H216.67V286.37Z" fill="#FAFAFA"/>
<path d="M188.82 310.02H197.09V286.36H188.82V310.02Z" fill="#F0F0F0"/>
<path d="M201.2 262.71H181.61V286.37H201.2V262.71Z" fill="#FAFAFA"/>
<path d="M173.34 286.37H181.61V262.71H173.34V286.37Z" fill="#F0F0F0"/>
<path d="M225.96 374.56V315.34H197.69V374.56H225.96Z" fill="#E0E0E0"/>
<path d="M149.64 382.4V181.22H127.71L127.71 382.4H149.64Z" fill="#F5F5F5"/>
<path d="M221.08 323.88H162.71V374.56H221.08V323.88Z" fill="#F0F0F0"/>
<path d="M154.08 374.55H162.72V323.87H154.08V374.55Z" fill="#E0E0E0"/>
<path d="M221.08 194.81H162.71V245.49H221.08V194.81Z" fill="#F0F0F0"/>
<path d="M154.08 245.48H162.72V194.8H154.08V245.48Z" fill="#E0E0E0"/>
<path d="M426 382.4V87.67L286.88 87.67V382.4H426Z" fill="#FAFAFA"/>
<path d="M286.88 382.4V87.67H286.36V382.4H286.88Z" fill="#F0F0F0"/>
<path d="M410.5 97.34H296.94V382.4H410.5V97.34Z" fill="#E6E6E6"/>
<path d="M416.58 97.34H299.78V382.4H416.58V97.34Z" fill="#F0F0F0"/>
<path d="M408.07 242.24V245.83L411.66 242.24H408.07Z" fill="#E0E0E0"/>
<path d="M408.07 373.89V105.86H308.29V373.89H408.07Z" fill="#FAFAFA"/>
<path d="M389.52 240.78C388.788 240.78 388.086 241.071 387.568 241.588C387.051 242.106 386.76 242.808 386.76 243.54C386.76 244.272 387.051 244.974 387.568 245.492C388.086 246.009 388.788 246.3 389.52 246.3H407V240.78H389.52Z" fill="#F5F5F5"/>
<path d="M330.18 373.89L360.63 105.86H381.14L350.69 373.89H330.18Z" fill="white"/>
<path d="M355.1 373.89L385.55 105.86H393.55L363.1 373.89H355.1Z" fill="white"/>
<path d="M408.07 373.88V105.85H406.99V373.88H408.07Z" fill="#E6E6E6"/>
<path d="M410.71 242.63H393.24C392.509 242.627 391.808 242.336 391.291 241.819C390.774 241.302 390.483 240.601 390.48 239.87C390.483 239.139 390.774 238.438 391.291 237.921C391.808 237.404 392.509 237.113 393.24 237.11H410.71C411.442 237.11 412.144 237.401 412.662 237.918C413.179 238.436 413.47 239.138 413.47 239.87C413.47 240.602 413.179 241.304 412.662 241.822C412.144 242.339 411.442 242.63 410.71 242.63Z" fill="#EBEBEB"/>
<path d="M113.06 121.85H63.9702V199.94H113.06V121.85Z" fill="#E0E0E0"/>
<path d="M116.01 121.85H65.2598V199.94H116.01V121.85Z" fill="#F5F5F5"/>
<path d="M69.52 127.54V194.24H111.77V127.54H69.52Z" fill="white"/>
<path d="M182.37 84.17H133.28V162.26H182.37V84.17Z" fill="#E0E0E0"/>
<path d="M185.33 84.17H134.58V162.26H185.33V84.17Z" fill="#F5F5F5"/>
<path d="M138.83 89.8701V156.57H181.08V89.8701H138.83Z" fill="white"/>
<path d="M250 427.56C357.082 427.56 443.89 422.492 443.89 416.24C443.89 409.988 357.082 404.92 250 404.92C142.917 404.92 56.1099 409.988 56.1099 416.24C56.1099 422.492 142.917 427.56 250 427.56Z" fill="#F5F5F5"/>
<path d="M163.63 125.23C165.78 128.08 166.04 131.58 163.73 137.23C162.73 139.55 161.43 141.82 158.53 137.93C155.63 134.04 153.14 126.93 157.53 126.3C161.92 125.67 163.63 125.23 163.63 125.23Z" fill="#263238"/>
<path d="M162.7 406.89H170.13L170.45 389.68H163.02L162.7 406.89Z" fill="#FFC3BD"/>
<path d="M107.54 393.69L114.74 395.52L122.19 379.67L114.99 377.84L107.54 393.69Z" fill="#FFC3BD"/>
<path d="M115.7 394.76L107.79 392.09C107.652 392.043 107.502 392.045 107.365 392.096C107.228 392.147 107.113 392.244 107.04 392.37L103.69 398.2C103.61 398.344 103.562 398.505 103.551 398.67C103.54 398.834 103.565 399 103.625 399.154C103.686 399.308 103.779 399.446 103.899 399.56C104.019 399.673 104.163 399.759 104.32 399.81C107.1 400.7 108.49 400.99 111.97 402.17C114.11 402.89 120.2 405.45 123.16 406.45C126.12 407.45 127.41 404.64 126.29 403.96C121.24 400.96 117.95 397.75 116.7 395.59C116.477 395.202 116.122 394.907 115.7 394.76Z" fill="#263238"/>
<path d="M170.06 406H162C161.855 405.999 161.714 406.048 161.601 406.14C161.488 406.231 161.41 406.358 161.38 406.5L160 413.14C159.971 413.302 159.977 413.469 160.02 413.628C160.062 413.787 160.139 413.935 160.245 414.061C160.351 414.187 160.483 414.288 160.633 414.357C160.782 414.426 160.945 414.461 161.11 414.46C164.03 414.46 168.26 414.24 171.93 414.24C176.24 414.24 177.14 414.47 182.18 414.47C185.23 414.47 186 411.39 184.72 411.11C178.87 409.84 176.95 409.7 171.85 406.61C171.32 406.247 170.701 406.036 170.06 406Z" fill="#263238"/>
<path d="M168.13 171.91L178.27 168.66C178.27 168.66 188.75 192.92 192.27 194.43C197.05 196.43 200.79 199.84 206.92 200.43C207.75 201.38 209.11 204.43 208.98 205.57C200.75 208.67 188.07 205.38 184.58 202.15C176.59 194.81 168.13 171.91 168.13 171.91Z" fill="#FFC3BD"/>
<path d="M165.76 166.33C162.91 172.83 174.36 193.47 174.36 193.47L189.51 186.47C187.65 180.17 185.133 174.084 182 168.31C177.24 160 168.89 159.19 165.76 166.33Z" fill="#7E57C2"/>
<path opacity="0.5" d="M165.76 166.33C162.91 172.83 174.36 193.47 174.36 193.47L189.51 186.47C187.65 180.17 185.133 174.084 182 168.31C177.24 160 168.89 159.19 165.76 166.33Z" fill="black"/>
<path d="M205.66 200.44L211.38 197.44L214.29 205.85C214.29 205.85 212.42 206.68 207.08 206.02L205.66 200.44Z" fill="#FFC3BD"/>
<path d="M217.08 195.33L218.91 202.52L214.29 205.88L211.38 197.47L217.08 195.33Z" fill="#FFC3BD"/>
<path opacity="0.2" d="M170.45 389.69L170.29 398.56H162.85L163.02 389.69H170.45Z" fill="black"/>
<path opacity="0.2" d="M114.98 377.84L122.19 379.67L118.34 387.84L111.14 386.01L114.98 377.84Z" fill="black"/>
<path d="M175.47 162.11C175.47 162.11 184.79 187.64 177.47 229.42H137.75C137.32 223.32 140.43 190.47 133.84 161.73C138.219 160.881 142.648 160.32 147.1 160.05C152.726 159.725 158.365 159.725 163.99 160.05C167.864 160.442 171.702 161.131 175.47 162.11Z" fill="#7E57C2"/>
<path opacity="0.5" d="M175.47 162.11C175.47 162.11 184.79 187.64 177.47 229.42H137.75C137.32 223.32 140.43 190.47 133.84 161.73C138.219 160.881 142.648 160.32 147.1 160.05C152.726 159.725 158.365 159.725 163.99 160.05C167.864 160.442 171.702 161.131 175.47 162.11Z" fill="black"/>
<path opacity="0.2" d="M142.65 168.83C143.42 173.56 142.21 184.83 138.02 197.95C137.817 186.747 136.626 175.584 134.46 164.59V164.53C137.07 164.27 141.9 164.39 142.65 168.83Z" fill="black"/>
<path d="M148.92 144.25C150.12 149.69 150.81 156.42 147.1 160.05C147.1 160.05 149.42 165.56 159.52 165.56C168.75 165.56 163.99 160.05 163.99 160.05C157.9 158.6 157.99 151.11 158.99 146.89L148.92 144.25Z" fill="#FFC3BD"/>
<path d="M159.52 165.56C158.466 167.109 157.842 168.911 157.71 170.78C157.71 170.78 144.95 166.32 145.38 159.78C145.38 159.78 147.15 158.71 148.27 157.84C148.27 157.85 148.81 163 159.52 165.56Z" fill="white"/>
<path d="M159.52 165.56C160.604 167.043 161.479 168.668 162.12 170.39C162.12 170.39 167.76 166.51 165.88 160.05C164.818 159.632 163.724 159.297 162.61 159.05C162.61 159.05 163.47 164.17 159.52 165.56Z" fill="white"/>
<path opacity="0.2" d="M159 146.89C158.252 149.829 158.338 152.918 159.25 155.81C158.307 155.669 157.391 155.39 156.53 154.98C153.07 153.37 151.32 150.84 149.48 147.07C149.32 146.07 149.14 145.17 148.93 144.25L159 146.89Z" fill="black"/>
<path d="M168.27 142.28C167.889 143.105 167.345 143.844 166.672 144.454C165.998 145.064 165.208 145.532 164.35 145.83C162.04 146.61 160.72 144.54 161.22 142.26C161.67 140.26 163.41 137.34 165.79 137.55C166.313 137.61 166.814 137.797 167.248 138.095C167.682 138.393 168.037 138.793 168.281 139.259C168.526 139.725 168.653 140.244 168.651 140.771C168.649 141.297 168.518 141.816 168.27 142.28Z" fill="#FFC3BD"/>
<path opacity="0.2" d="M168.27 142.28C167.889 143.105 167.345 143.844 166.672 144.454C165.998 145.064 165.208 145.532 164.35 145.83C162.04 146.61 160.72 144.54 161.22 142.26C161.67 140.26 163.41 137.34 165.79 137.55C166.313 137.61 166.814 137.797 167.248 138.095C167.682 138.393 168.037 138.793 168.281 139.259C168.526 139.725 168.653 140.244 168.651 140.771C168.649 141.297 168.518 141.816 168.27 142.28Z" fill="black"/>
<path d="M145.54 136.45C146.9 143.76 147.33 148.11 151.46 151.5C157.68 156.61 166.23 152.3 167.05 144.76C167.79 137.98 165.45 127.16 157.98 124.97C156.344 124.481 154.608 124.427 152.944 124.812C151.28 125.197 149.746 126.009 148.49 127.167C147.235 128.325 146.303 129.79 145.786 131.418C145.269 133.046 145.184 134.78 145.54 136.45Z" fill="#FFC3BD"/>
<path d="M150.6 128.09C152.28 131.23 151.4 133.28 149.08 138.87C148.08 141.19 146.5 143.66 143.88 139.57C141.41 135.71 137.64 128.57 140.88 127.79C145.21 126.81 150.6 128.09 150.6 128.09Z" fill="#263238"/>
<path d="M148.49 130.14C151.49 131.14 153.87 129.63 154.44 128.19C156.84 129.25 159.99 129.39 161.01 128.03C163.01 128.03 165.15 128.39 166.11 125.53C167.07 122.67 165.88 120.1 162.74 118.65C162.67 119.29 161.04 120.12 159.51 119.06C158.652 118.577 157.673 118.352 156.69 118.412C155.707 118.473 154.763 118.816 153.97 119.4C150.7 118.55 148.39 118.08 146.51 120.23C143.4 119.58 139.61 122.4 140.13 124.85C137.69 127.85 140.05 130.34 142.55 130.77C143.05 132 147.83 131.41 148.49 130.14Z" fill="#263238"/>
<path d="M143.27 144.91C144.427 146.371 146.111 147.319 147.96 147.55C150.39 147.83 151.17 145.55 150.13 143.43C149.19 141.52 146.79 139.09 144.53 139.78C142.27 140.47 141.85 143.09 143.27 144.91Z" fill="#FFC3BD"/>
<path d="M151.37 229.42C151.37 229.42 152.16 238.76 153.16 251.42C154.31 265.77 155.72 284.42 156.56 298.59C156.56 298.67 156.56 298.73 156.56 298.79C156.72 301.48 156.86 304.01 156.97 306.32C158.1 329.47 160.42 396.84 160.42 396.84H173C173 396.84 179.33 328.09 179.6 304.53C179.85 281.87 177.47 229.42 177.47 229.42H151.37Z" fill="#263238"/>
<path d="M159.5 393C159.45 393 159.6 397.11 159.6 397.11H174.11L174.61 392.49L159.5 393Z" fill="#7E57C2"/>
<path opacity="0.2" d="M153.16 251.42C154.31 265.77 155.72 284.42 156.56 298.59C156.56 298.67 156.56 298.73 156.56 298.79C159.64 285.33 160.89 268.59 160.45 241.03L153.16 251.42Z" fill="black"/>
<path d="M163.39 229.42C163.39 229.42 156.39 283.1 152.24 304.42C147.74 327.71 122.08 387.07 122.08 387.07L108.89 383.72C108.89 383.72 127.68 329.59 130.01 306.53C132.53 281.53 137.75 229.47 137.75 229.47L163.39 229.42Z" fill="#263238"/>
<path d="M109.68 380.21C109.63 380.21 108.18 383.75 108.18 383.75L122.67 387.44L124.93 383.51L109.68 380.21Z" fill="#7E57C2"/>
<path d="M156.81 137.35C156.89 137.95 157.26 138.4 157.65 138.35C158.04 138.3 158.29 137.79 158.21 137.19C158.13 136.59 157.76 136.19 157.38 136.19C157 136.19 156.74 136.75 156.81 137.35Z" fill="#263238"/>
<path d="M163.5 136.65C163.57 137.25 163.94 137.65 164.33 137.65C164.72 137.65 164.97 137.09 164.89 136.49C164.81 135.89 164.45 135.44 164.06 135.49C163.67 135.54 163.42 136.05 163.5 136.65Z" fill="#263238"/>
<path d="M161.41 137.17C162.34 138.929 163.504 140.554 164.87 142C164.501 142.335 164.061 142.583 163.584 142.727C163.106 142.871 162.603 142.906 162.11 142.83L161.41 137.17Z" fill="#ED847E"/>
<path d="M160.62 144.5C160.665 144.491 160.705 144.465 160.733 144.428C160.76 144.391 160.774 144.346 160.77 144.3C160.763 144.254 160.738 144.213 160.7 144.185C160.663 144.157 160.616 144.144 160.57 144.15C159.831 144.264 159.076 144.202 158.365 143.969C157.654 143.736 157.009 143.339 156.48 142.81C156.446 142.78 156.401 142.763 156.355 142.763C156.309 142.763 156.265 142.78 156.23 142.81C156.198 142.844 156.18 142.888 156.18 142.935C156.18 142.982 156.198 143.027 156.23 143.06C156.795 143.632 157.487 144.061 158.251 144.312C159.014 144.562 159.827 144.627 160.62 144.5Z" fill="#263238"/>
<path d="M154.53 135.37C154.582 135.363 154.632 135.346 154.677 135.318C154.722 135.29 154.76 135.254 154.79 135.21C154.996 134.824 155.294 134.494 155.656 134.248C156.018 134.003 156.435 133.849 156.87 133.8C156.916 133.797 156.961 133.786 157.002 133.766C157.044 133.746 157.081 133.718 157.112 133.684C157.142 133.649 157.166 133.609 157.181 133.566C157.196 133.522 157.203 133.476 157.2 133.43C157.195 133.336 157.153 133.248 157.084 133.185C157.015 133.121 156.924 133.087 156.83 133.09C156.278 133.141 155.748 133.327 155.285 133.632C154.823 133.938 154.443 134.352 154.18 134.84C154.136 134.921 154.125 135.017 154.149 135.106C154.173 135.195 154.231 135.272 154.31 135.32C154.374 135.365 154.453 135.383 154.53 135.37Z" fill="#263238"/>
<path d="M166.2 133.93C166.251 133.921 166.299 133.9 166.34 133.87C166.378 133.843 166.41 133.809 166.435 133.77C166.459 133.73 166.475 133.686 166.481 133.64C166.488 133.594 166.485 133.548 166.473 133.503C166.46 133.458 166.439 133.416 166.41 133.38C166.095 132.916 165.674 132.533 165.182 132.264C164.69 131.994 164.141 131.846 163.58 131.83C163.534 131.831 163.488 131.842 163.446 131.861C163.404 131.881 163.366 131.909 163.335 131.944C163.304 131.978 163.281 132.019 163.266 132.063C163.252 132.107 163.246 132.154 163.25 132.2C163.256 132.294 163.297 132.382 163.366 132.445C163.435 132.509 163.527 132.543 163.62 132.54C164.064 132.557 164.498 132.68 164.886 132.897C165.273 133.114 165.604 133.42 165.85 133.79C165.891 133.843 165.945 133.883 166.006 133.908C166.068 133.933 166.135 133.94 166.2 133.93Z" fill="#263238"/>
<path d="M130 172.83L139.57 177.96C139.57 177.96 128.67 201.57 130.09 205.08C132.02 209.86 135.09 220.42 138.39 225.62C138.13 226.82 136.51 229.62 135.51 230.23C127.88 225.53 119.1 209.5 118.94 204.83C118.58 194.19 130 172.83 130 172.83Z" fill="#FFC3BD"/>
<path d="M133.84 161.73C126.84 162.73 119.38 187.11 119.38 187.11L134.38 195.45C134.38 195.45 140.6 183.86 143.59 175.26C146.7 166.25 141.35 160.63 133.84 161.73Z" fill="#7E57C2"/>
<path opacity="0.5" d="M133.84 161.73C126.84 162.73 119.38 187.11 119.38 187.11L134.38 195.45C134.38 195.45 140.6 183.86 143.59 175.26C146.7 166.25 141.35 160.63 133.84 161.73Z" fill="black"/>
<path d="M117.64 396.79C118.102 396.988 118.616 397.023 119.1 396.89C119.262 396.822 119.404 396.715 119.513 396.579C119.623 396.443 119.698 396.282 119.73 396.11C119.76 396.011 119.762 395.906 119.738 395.806C119.713 395.706 119.662 395.614 119.59 395.54C118.94 394.88 116.23 395.54 115.92 395.54C115.887 395.548 115.857 395.565 115.834 395.59C115.811 395.615 115.796 395.646 115.79 395.68C115.787 395.715 115.794 395.751 115.81 395.783C115.826 395.815 115.85 395.841 115.88 395.86C116.429 396.238 117.019 396.55 117.64 396.79ZM119.14 395.68C119.217 395.693 119.288 395.732 119.34 395.79C119.362 395.825 119.373 395.864 119.373 395.905C119.373 395.946 119.362 395.985 119.34 396.02C119.32 396.137 119.271 396.248 119.198 396.342C119.124 396.436 119.029 396.511 118.92 396.56C118.013 396.652 117.104 396.395 116.38 395.84C117.279 395.595 118.219 395.541 119.14 395.68Z" fill="#7E57C2"/>
<path d="M115.91 395.93H116C116.85 395.77 118.74 394.7 118.84 393.85C118.854 393.718 118.824 393.585 118.753 393.472C118.682 393.36 118.575 393.274 118.45 393.23C118.327 393.178 118.194 393.151 118.06 393.151C117.926 393.151 117.793 393.178 117.67 393.23C116.67 393.63 115.84 395.62 115.8 395.7C115.785 395.728 115.777 395.759 115.777 395.79C115.777 395.821 115.785 395.852 115.8 395.88C115.829 395.91 115.868 395.928 115.91 395.93ZM118.23 393.53H118.3C118.51 393.63 118.5 393.74 118.49 393.79C118.49 394.28 117.17 395.16 116.28 395.46C116.55 394.89 117.14 393.78 117.8 393.52C117.94 393.474 118.092 393.477 118.23 393.53Z" fill="#7E57C2"/>
<path d="M173.19 407.32C173.821 407.377 174.452 407.219 174.98 406.87C175.097 406.762 175.185 406.627 175.239 406.477C175.293 406.328 175.311 406.168 175.29 406.01C175.283 405.913 175.252 405.819 175.199 405.737C175.147 405.655 175.075 405.588 174.99 405.54C174.07 405.04 171.12 406.54 170.79 406.73C170.758 406.746 170.732 406.773 170.716 406.805C170.7 406.838 170.694 406.874 170.7 406.91C170.705 406.946 170.722 406.98 170.747 407.007C170.772 407.034 170.804 407.052 170.84 407.06C171.614 407.216 172.401 407.303 173.19 407.32ZM174.49 405.79C174.603 405.785 174.716 405.805 174.82 405.85C174.855 405.869 174.884 405.896 174.905 405.929C174.926 405.963 174.938 406.001 174.94 406.04C174.955 406.144 174.945 406.25 174.91 406.35C174.876 406.449 174.817 406.538 174.74 406.61C174.29 407.01 173.07 407.08 171.42 406.81C172.378 406.298 173.416 405.953 174.49 405.79Z" fill="#7E57C2"/>
<path d="M170.88 407.06H171C171.89 406.65 173.62 405.06 173.47 404.21C173.47 404.01 173.28 403.76 172.8 403.72C172.622 403.692 172.439 403.705 172.266 403.757C172.093 403.809 171.934 403.899 171.8 404.02C170.87 404.79 170.72 406.79 170.72 406.88C170.716 406.911 170.721 406.941 170.733 406.97C170.745 406.998 170.765 407.022 170.79 407.04C170.818 407.053 170.849 407.059 170.88 407.06ZM172.62 404.06H172.72C173.04 404.06 173.06 404.21 173.07 404.25C173.16 404.76 171.99 406.02 171.07 406.57C171.128 405.729 171.45 404.927 171.99 404.28C172.164 404.128 172.389 404.046 172.62 404.05V404.06Z" fill="#7E57C2"/>
<path d="M137 224.66L144 225.38L139.13 232.44C139.13 232.44 132.99 231.61 132.7 226.75L137 224.66Z" fill="#FFC3BD"/>
<path d="M148.04 228.11L143.32 234.28L139.2 232.44L144.07 225.38L148.04 228.11Z" fill="#FFC3BD"/>
<path d="M400.19 224.27L407.19 305.35C407.75 311.95 403.72 317.74 398.19 318.21L244.33 331.41C238.83 331.89 233.86 326.87 233.33 320.28L226.33 239.19C226.191 237.668 226.31 236.133 226.68 234.65C227.78 230.12 231.12 226.65 235.3 226.34L389.16 213.13C393.33 212.77 397.16 215.58 399.07 219.84C399.686 221.245 400.064 222.742 400.19 224.27Z" fill="#7E57C2"/>
<path opacity="0.1" d="M400.19 224.27L407.19 305.35C407.75 311.95 403.72 317.74 398.19 318.21L244.33 331.41C238.83 331.89 233.86 326.87 233.33 320.28L226.33 239.19C226.191 237.668 226.31 236.133 226.68 234.65C227.78 230.12 231.12 226.65 235.3 226.34L389.16 213.13C393.33 212.77 397.16 215.58 399.07 219.84C399.686 221.245 400.064 222.742 400.19 224.27Z" fill="black"/>
<path d="M418.456 272.066L417.364 272.198L417.806 275.852L418.898 275.72L418.456 272.066Z" fill="#7E57C2"/>
<path d="M416.327 254.427L415.235 254.559L416.88 268.17L417.972 268.038L416.327 254.427Z" fill="#7E57C2"/>
<path d="M407.08 209.77L417.14 292.93C417.95 299.69 414.01 305.79 408.37 306.47L250.58 325.56C244.94 326.24 239.65 321.26 238.83 314.49L228.77 231.34C228.579 229.776 228.646 228.192 228.97 226.65C229.97 221.96 233.25 218.31 237.54 217.79L395.33 198.71C399.62 198.19 403.7 200.94 405.77 205.26C406.452 206.681 406.895 208.205 407.08 209.77Z" fill="#7E57C2"/>
<path opacity="0.1" d="M405.77 205.26L334.2 253.45C330.697 255.844 326.67 257.36 322.458 257.87C318.246 258.38 313.973 257.869 310 256.38L229 226.65C230 221.96 233.28 218.31 237.57 217.79L395.36 198.71C399.62 198.19 403.7 200.94 405.77 205.26Z" fill="black"/>
<path d="M379.07 223.23L358.51 237.07L351.78 241.61L334.2 253.45C330.788 255.791 326.872 257.295 322.77 257.841C318.668 258.387 314.495 257.958 310.59 256.59L309.96 256.38L300.1 252.76L277.9 244.61L267.52 240.8L255.76 236.48L254.91 215.69L253 169.49L343.33 165.82L377.76 191.91L378.12 200.78L379.07 223.23Z" fill="#7E57C2"/>
<path opacity="0.7" d="M379.07 223.23L358.51 237.07L351.78 241.61L334.2 253.45C330.788 255.791 326.872 257.295 322.77 257.841C318.668 258.387 314.495 257.958 310.59 256.59L309.96 256.38L300.1 252.76L277.9 244.61L267.52 240.8L255.76 236.48L254.91 215.69L253 169.49L343.33 165.82L377.76 191.91L378.12 200.78L379.07 223.23Z" fill="#FAFAFA"/>
<g opacity="0.9">
<path opacity="0.9" d="M366.34 201.1L266.34 205.16C265.783 205.182 265.238 204.985 264.824 204.612C264.409 204.238 264.157 203.717 264.12 203.16C264.101 202.604 264.299 202.062 264.672 201.65C265.046 201.237 265.565 200.986 266.12 200.95L366.12 196.89C366.678 196.868 367.223 197.065 367.637 197.438C368.052 197.812 368.304 198.333 368.34 198.89C368.362 199.447 368.165 199.99 367.791 200.403C367.418 200.816 366.897 201.066 366.34 201.1Z" fill="white"/>
<path opacity="0.9" d="M366.87 214.39L266.87 218.45C266.312 218.472 265.768 218.275 265.353 217.902C264.939 217.528 264.686 217.007 264.65 216.45C264.631 215.893 264.828 215.35 265.202 214.936C265.575 214.522 266.094 214.269 266.65 214.23L366.65 210.17C367.207 210.151 367.75 210.348 368.164 210.721C368.579 211.094 368.832 211.614 368.87 212.17C368.887 212.726 368.689 213.268 368.316 213.682C367.943 214.095 367.425 214.349 366.87 214.39Z" fill="white"/>
<path opacity="0.9" d="M367.411 227.67L267.411 231.73C266.853 231.752 266.309 231.555 265.894 231.182C265.479 230.808 265.227 230.287 265.191 229.73C265.169 229.173 265.366 228.63 265.74 228.217C266.114 227.804 266.634 227.554 267.191 227.52L367.191 223.46C367.747 223.438 368.291 223.635 368.704 224.009C369.117 224.383 369.367 224.904 369.401 225.46C369.423 226.015 369.227 226.557 368.855 226.97C368.483 227.383 367.965 227.634 367.411 227.67Z" fill="white"/>
<path opacity="0.9" d="M358.511 237.07L351.781 241.61L277.901 244.61L267.521 240.8C267.607 240.79 267.694 240.79 267.781 240.8L358.511 237.07Z" fill="white"/>
<path opacity="0.9" d="M331.141 253.62V253.7C331.142 254.244 330.936 254.768 330.564 255.166C330.193 255.563 329.684 255.804 329.141 255.84L310.631 256.59L310.001 256.38L300.141 252.76L328.971 251.58C329.526 251.572 330.064 251.78 330.469 252.161C330.874 252.541 331.115 253.065 331.141 253.62Z" fill="white"/>
</g>
<path opacity="0.1" d="M377.8 191.91L353.88 190.88L343.37 165.82L377.8 191.91Z" fill="#263238"/>
<path d="M377.8 191.91L354.59 187.94L343.37 165.82L377.8 191.91Z" fill="#7E57C2"/>
<path d="M423.81 94.93C423.81 115.27 401.52 135.26 398.18 135.26C394.84 135.26 372.55 115.26 372.55 94.93C372.55 81.3 384.02 70.24 398.18 70.24C412.34 70.24 423.81 81.3 423.81 94.93Z" fill="#7E57C2"/>
<path opacity="0.1" d="M393.42 89.86C388.78 94.95 382.48 96.77 379.35 93.86C376.22 90.95 377.44 84.57 382.07 79.48C386.7 74.39 393.01 72.57 396.15 75.42C399.29 78.27 398.06 84.77 393.42 89.86Z" fill="white"/>
<path opacity="0.1" d="M379.75 110.35C379.14 108.83 379.3 107.35 380.11 107.01C380.92 106.67 382.11 107.65 382.68 109.17C383.25 110.69 383.13 112.17 382.32 112.5C381.51 112.83 380.36 111.86 379.75 110.35Z" fill="white"/>
<path d="M397.08 199.26C396.972 199.257 396.87 199.213 396.793 199.137C396.717 199.061 396.673 198.958 396.67 198.85C396.641 197.501 397.048 196.179 397.83 195.08C398.502 194.095 398.861 192.932 398.861 191.74C398.861 190.548 398.502 189.385 397.83 188.4C397.075 187.288 396.671 185.974 396.671 184.63C396.671 183.286 397.075 181.972 397.83 180.86C398.502 179.877 398.861 178.715 398.861 177.525C398.861 176.335 398.502 175.172 397.83 174.19C397.075 173.08 396.67 171.768 396.67 170.425C396.67 169.082 397.075 167.77 397.83 166.66C398.502 165.677 398.861 164.515 398.861 163.325C398.861 162.135 398.502 160.972 397.83 159.99C397.075 158.88 396.67 157.568 396.67 156.225C396.67 154.882 397.075 153.57 397.83 152.46C398.502 151.477 398.861 150.315 398.861 149.125C398.861 147.935 398.502 146.772 397.83 145.79C397.075 144.68 396.67 143.368 396.67 142.025C396.67 140.682 397.075 139.37 397.83 138.26C398.515 137.287 398.866 136.119 398.83 134.93C398.846 134.831 398.896 134.741 398.972 134.676C399.048 134.61 399.145 134.575 399.245 134.575C399.346 134.575 399.443 134.61 399.519 134.676C399.595 134.741 399.645 134.831 399.66 134.93C399.689 136.275 399.282 137.594 398.5 138.69C397.818 139.667 397.467 140.838 397.5 142.03C397.465 143.219 397.816 144.387 398.5 145.36C399.256 146.47 399.66 147.782 399.66 149.125C399.66 150.468 399.256 151.78 398.5 152.89C397.824 153.87 397.461 155.034 397.461 156.225C397.461 157.416 397.824 158.58 398.5 159.56C399.256 160.67 399.66 161.982 399.66 163.325C399.66 164.668 399.256 165.98 398.5 167.09C397.824 168.07 397.461 169.234 397.461 170.425C397.461 171.616 397.824 172.78 398.5 173.76C399.256 174.87 399.66 176.182 399.66 177.525C399.66 178.868 399.256 180.18 398.5 181.29C397.823 182.272 397.46 183.437 397.46 184.63C397.46 185.823 397.823 186.988 398.5 187.97C399.256 189.082 399.66 190.396 399.66 191.74C399.66 193.084 399.256 194.398 398.5 195.51C397.814 196.486 397.463 197.658 397.5 198.85C397.5 198.905 397.49 198.959 397.468 199.009C397.447 199.06 397.416 199.105 397.377 199.143C397.338 199.182 397.291 199.212 397.24 199.232C397.19 199.252 397.135 199.261 397.08 199.26Z" fill="#263238"/>
<path d="M398.18 134.3C397.39 134.3 392.18 139 392.18 143.78H404.2C404.2 139 399 134.3 398.18 134.3Z" fill="#7E57C2"/>
<path d="M399.36 134.46H397C396.807 134.46 396.65 134.617 396.65 134.81V135.06C396.65 135.253 396.807 135.41 397 135.41H399.36C399.554 135.41 399.71 135.253 399.71 135.06V134.81C399.71 134.617 399.554 134.46 399.36 134.46Z" fill="#263238"/>
<path d="M263 113.94C263 134.27 240.71 154.26 237.37 154.26C234.03 154.26 211.74 134.26 211.74 113.94C211.74 100.3 223.21 89.24 237.37 89.24C251.53 89.24 263 100.3 263 113.94Z" fill="#263238"/>
<path opacity="0.1" d="M233.215 109.693C237.853 104.602 239.074 98.1621 235.942 95.3095C232.811 92.457 226.513 94.272 221.875 99.3634C217.237 104.455 216.016 110.895 219.148 113.747C222.279 116.6 228.578 114.785 233.215 109.693Z" fill="white"/>
<path opacity="0.1" d="M219.54 130.18C218.93 128.66 219.09 127.18 219.9 126.84C220.71 126.5 221.9 127.48 222.47 129C223.04 130.52 222.92 132 222.11 132.34C221.3 132.68 220.15 131.7 219.54 130.18Z" fill="white"/>
<path d="M236.23 218.26C236.122 218.26 236.017 218.217 235.94 218.14C235.864 218.063 235.82 217.959 235.82 217.85C235.791 216.501 236.198 215.179 236.98 214.08C237.651 213.095 238.01 211.932 238.01 210.74C238.01 209.548 237.651 208.385 236.98 207.4C236.225 206.288 235.821 204.974 235.821 203.63C235.821 202.286 236.225 200.972 236.98 199.86C237.665 198.887 238.016 197.719 237.98 196.53C238.014 195.338 237.663 194.167 236.98 193.19C236.225 192.08 235.82 190.768 235.82 189.425C235.82 188.082 236.225 186.77 236.98 185.66C237.665 184.687 238.016 183.519 237.98 182.33C238.014 181.138 237.663 179.967 236.98 178.99C236.225 177.88 235.82 176.568 235.82 175.225C235.82 173.882 236.225 172.57 236.98 171.46C237.651 170.479 238.01 169.318 238.01 168.13C238.01 166.942 237.651 165.781 236.98 164.8C236.225 163.69 235.82 162.378 235.82 161.035C235.82 159.692 236.225 158.38 236.98 157.27C237.663 156.293 238.014 155.122 237.98 153.93C237.983 153.822 238.027 153.719 238.103 153.643C238.18 153.567 238.282 153.523 238.39 153.52C238.499 153.52 238.603 153.563 238.68 153.64C238.757 153.717 238.8 153.821 238.8 153.93C238.832 155.278 238.428 156.599 237.65 157.7C236.973 158.678 236.61 159.84 236.61 161.03C236.61 162.22 236.973 163.382 237.65 164.36C238.4 165.473 238.8 166.784 238.8 168.125C238.8 169.466 238.4 170.777 237.65 171.89C236.968 172.867 236.617 174.038 236.65 175.23C236.615 176.419 236.966 177.587 237.65 178.56C238.4 179.673 238.8 180.984 238.8 182.325C238.8 183.666 238.4 184.977 237.65 186.09C236.968 187.067 236.617 188.238 236.65 189.43C236.615 190.619 236.966 191.787 237.65 192.76C238.4 193.873 238.8 195.184 238.8 196.525C238.8 197.866 238.4 199.177 237.65 200.29C236.973 201.272 236.61 202.437 236.61 203.63C236.61 204.823 236.973 205.988 237.65 206.97C238.401 208.084 238.801 209.397 238.801 210.74C238.801 212.083 238.401 213.396 237.65 214.51C236.966 215.487 236.616 216.658 236.65 217.85C236.65 217.905 236.639 217.959 236.618 218.009C236.597 218.06 236.566 218.105 236.527 218.144C236.488 218.182 236.441 218.212 236.39 218.232C236.339 218.252 236.285 218.261 236.23 218.26Z" fill="#7E57C2"/>
<path d="M237.33 153.31C236.54 153.31 231.33 158 231.33 162.78H243.33C243.35 158 238.11 153.31 237.33 153.31Z" fill="#263238"/>
<path d="M238.51 153.46H236.15C235.957 153.46 235.8 153.617 235.8 153.81V154.06C235.8 154.253 235.957 154.41 236.15 154.41H238.51C238.704 154.41 238.86 154.253 238.86 154.06V153.81C238.86 153.617 238.704 153.46 238.51 153.46Z" fill="#7E57C2"/>
<path d="M412.056 217.826C418.114 212.263 418.515 202.844 412.953 196.787C407.391 190.73 397.972 190.328 391.914 195.891C385.857 201.453 385.456 210.872 391.018 216.929C396.58 222.986 405.999 223.388 412.056 217.826Z" fill="#DE5753"/>
<path d="M404.94 199.67V214.67H400.8V204.85C400.189 205.321 399.536 205.736 398.85 206.09C398.089 206.452 397.299 206.753 396.49 206.99V203.64C397.664 203.304 398.766 202.755 399.74 202.02C400.509 201.387 401.128 200.591 401.55 199.69L404.94 199.67Z" fill="white"/>
</svg>
